%TF.GenerationSoftware,KiCad,Pcbnew,7.0.5*%
%TF.CreationDate,2023-12-19T11:10:52+01:00*%
%TF.ProjectId,RemoteDevice,52656d6f-7465-4446-9576-6963652e6b69,rev?*%
%TF.SameCoordinates,Original*%
%TF.FileFunction,Plated,1,2,PTH,Drill*%
%TF.FilePolarity,Positive*%
%FSLAX46Y46*%
G04 Gerber Fmt 4.6, Leading zero omitted, Abs format (unit mm)*
G04 Created by KiCad (PCBNEW 7.0.5) date 2023-12-19 11:10:52*
%MOMM*%
%LPD*%
G01*
G04 APERTURE LIST*
%TA.AperFunction,ViaDrill*%
%ADD10C,0.600000*%
%TD*%
%TA.AperFunction,ComponentDrill*%
%ADD11C,0.700000*%
%TD*%
%TA.AperFunction,ComponentDrill*%
%ADD12C,0.900000*%
%TD*%
%TA.AperFunction,ComponentDrill*%
%ADD13C,1.000000*%
%TD*%
%TA.AperFunction,ComponentDrill*%
%ADD14C,1.100000*%
%TD*%
%TA.AperFunction,ViaDrill*%
%ADD15C,3.000000*%
%TD*%
G04 APERTURE END LIST*
D10*
X32650000Y-104750000D03*
X35050000Y-94550000D03*
X35250000Y-89500000D03*
X42450000Y-94700000D03*
X42700000Y-89800000D03*
X45250000Y-73600000D03*
X48300000Y-113150000D03*
X49300000Y-73650000D03*
X51900000Y-103300000D03*
X52750000Y-113250000D03*
X53500000Y-91750000D03*
X54250000Y-108550000D03*
X55400000Y-88150000D03*
X57750000Y-104500000D03*
X60000000Y-101250000D03*
X60200000Y-72250000D03*
X60250000Y-90000000D03*
X66000000Y-100500000D03*
X67250000Y-98500000D03*
X70100000Y-74600000D03*
X73500000Y-104750000D03*
X77700000Y-87950000D03*
X78500000Y-92750000D03*
X79250000Y-68750000D03*
X81250000Y-79250000D03*
X82000000Y-103250000D03*
X84250000Y-95750000D03*
X86250000Y-97500000D03*
X86250000Y-100000000D03*
X86550000Y-113750000D03*
X91600000Y-82650000D03*
X92850000Y-110600000D03*
X93250000Y-66500000D03*
X98150000Y-89900000D03*
X98500000Y-95000000D03*
X101350000Y-110350000D03*
X101500000Y-95000000D03*
X106000000Y-86250000D03*
X107550000Y-88450000D03*
X107750000Y-72750000D03*
X108500000Y-96750000D03*
X114750000Y-91250000D03*
X116500000Y-92750000D03*
X117900000Y-99950000D03*
D11*
%TO.C,U10*%
X30705000Y-80655000D03*
X30705000Y-102655000D03*
X32705000Y-80655000D03*
X32705000Y-102655000D03*
X34705000Y-80655000D03*
X34705000Y-102655000D03*
X36705000Y-80655000D03*
X36705000Y-102655000D03*
X38705000Y-80655000D03*
X38705000Y-102655000D03*
X40705000Y-80655000D03*
X40705000Y-102655000D03*
X42705000Y-80655000D03*
X42705000Y-102655000D03*
X44705000Y-80655000D03*
X44705000Y-102655000D03*
X46705000Y-80655000D03*
X46705000Y-102655000D03*
X48705000Y-80655000D03*
X48705000Y-102655000D03*
%TO.C,U7*%
X95000000Y-87730000D03*
X95000000Y-90270000D03*
D12*
%TO.C,D1*%
X74000000Y-87735000D03*
X74000000Y-90275000D03*
%TO.C,D2*%
X80750000Y-87710000D03*
X80750000Y-90250000D03*
D13*
%TO.C,J3*%
X31000000Y-76336500D03*
%TO.C,U6*%
X33894000Y-76300000D03*
X37704000Y-75030000D03*
X37704000Y-77570000D03*
X62994000Y-77570000D03*
X62994000Y-80110000D03*
X62994000Y-82650000D03*
X62994000Y-85190000D03*
X62994000Y-87730000D03*
X62994000Y-90270000D03*
X62994000Y-92810000D03*
X62994000Y-95350000D03*
X62994000Y-97890000D03*
X62994000Y-100430000D03*
%TO.C,U9*%
X97224000Y-104964000D03*
X97224000Y-107504000D03*
X97224000Y-110044000D03*
X97224000Y-112576000D03*
%TO.C,J1*%
X117500000Y-79063500D03*
%TO.C,J2*%
X117500000Y-83313500D03*
D14*
%TO.C,SW1*%
X61576000Y-108190000D03*
X61576000Y-112690000D03*
X68076000Y-108190000D03*
X68076000Y-112690000D03*
%TO.C,SW2*%
X73576000Y-108190000D03*
X73576000Y-112690000D03*
X80076000Y-108190000D03*
X80076000Y-112690000D03*
%TD*%
D15*
X39000000Y-69000000D03*
X39000000Y-109000000D03*
X89000000Y-69000000D03*
X89000000Y-109000000D03*
M02*
